<svg width="29" height="28" viewBox="0 0 29 28" fill="none" xmlns="http://www.w3.org/2000/svg">
<path d="M14.3334 9.625C13.4681 9.625 12.6222 9.88159 11.9028 10.3623C11.1833 10.8431 10.6225 11.5263 10.2914 12.3258C9.96027 13.1252 9.87363 14.0049 10.0424 14.8535C10.2112 15.7022 10.6279 16.4817 11.2398 17.0936C11.8516 17.7054 12.6312 18.1221 13.4799 18.2909C14.3285 18.4597 15.2082 18.3731 16.0076 18.042C16.807 17.7108 17.4903 17.1501 17.9711 16.4306C18.4518 15.7112 18.7084 14.8653 18.7084 14C18.7084 12.8397 18.2474 11.7269 17.427 10.9064C16.6065 10.0859 15.4937 9.625 14.3334 9.625ZM14.3334 16.625C13.8142 16.625 13.3067 16.471 12.875 16.1826C12.4433 15.8942 12.1069 15.4842 11.9082 15.0045C11.7095 14.5249 11.6575 13.9971 11.7588 13.4879C11.8601 12.9787 12.1101 12.511 12.4772 12.1438C12.8443 11.7767 13.3121 11.5267 13.8213 11.4254C14.3305 11.3242 14.8583 11.3761 15.3379 11.5748C15.8176 11.7735 16.2275 12.1099 16.516 12.5416C16.8044 12.9733 16.9584 13.4808 16.9584 14C16.9584 14.6962 16.6818 15.3639 16.1895 15.8562C15.6972 16.3484 15.0296 16.625 14.3334 16.625ZM26.5834 6.125H2.08337C1.85131 6.125 1.62875 6.21719 1.46466 6.38128C1.30056 6.54538 1.20837 6.76794 1.20837 7V21C1.20837 21.2321 1.30056 21.4546 1.46466 21.6187C1.62875 21.7828 1.85131 21.875 2.08337 21.875H26.5834C26.8154 21.875 27.038 21.7828 27.2021 21.6187C27.3662 21.4546 27.4584 21.2321 27.4584 21V7C27.4584 6.76794 27.3662 6.54538 27.2021 6.38128C27.038 6.21719 26.8154 6.125 26.5834 6.125ZM21.5138 20.125H7.15291C6.85913 19.1314 6.32144 18.2272 5.58882 17.4945C4.8562 16.7619 3.95193 16.2242 2.95837 15.9305V12.0695C3.95193 11.7758 4.8562 11.2381 5.58882 10.5055C6.32144 9.77283 6.85913 8.86856 7.15291 7.875H21.5138C21.8076 8.86856 22.3453 9.77283 23.0779 10.5055C23.8105 11.2381 24.7148 11.7758 25.7084 12.0695V15.9305C24.7148 16.2242 23.8105 16.7619 23.0779 17.4945C22.3453 18.2272 21.8076 19.1314 21.5138 20.125ZM25.7084 10.2123C24.6589 9.76105 23.8223 8.92452 23.371 7.875H25.7084V10.2123ZM5.29572 7.875C4.84443 8.92452 4.0079 9.76105 2.95837 10.2123V7.875H5.29572ZM2.95837 17.7877C4.0079 18.2389 4.84443 19.0755 5.29572 20.125H2.95837V17.7877ZM23.371 20.125C23.8223 19.0755 24.6589 18.2389 25.7084 17.7877V20.125H23.371Z" fill="white"/>
</svg>
