<svg width="20" height="24" viewBox="0 0 20 24" fill="none" xmlns="http://www.w3.org/2000/svg">
<path d="M3.00002 23.6667C2.35836 23.6667 1.80886 23.438 1.35152 22.9807C0.894189 22.5233 0.665911 21.9742 0.666689 21.3333V7.33334C0.666689 6.69168 0.895355 6.14218 1.35269 5.68484C1.81002 5.22751 2.35913 4.99923 3.00002 5.00001H5.33336C5.33336 3.71668 5.7903 2.61807 6.70419 1.70418C7.61808 0.790288 8.71669 0.333344 10 0.333344C11.2834 0.333344 12.382 0.790288 13.2959 1.70418C14.2097 2.61807 14.6667 3.71668 14.6667 5.00001H17C17.6417 5.00001 18.1912 5.22868 18.6485 5.68601C19.1059 6.14334 19.3341 6.69245 19.3334 7.33334V21.3333C19.3334 21.975 19.1047 22.5245 18.6474 22.9818C18.19 23.4392 17.6409 23.6675 17 23.6667H3.00002ZM3.00002 21.3333H17V7.33334H14.6667V9.66668C14.6667 9.99723 14.5547 10.2745 14.3307 10.4985C14.1067 10.7225 13.8298 10.8341 13.5 10.8333C13.1695 10.8333 12.8922 10.7213 12.6682 10.4973C12.4442 10.2733 12.3326 9.99645 12.3334 9.66668V7.33334H7.66669V9.66668C7.66669 9.99723 7.55469 10.2745 7.33069 10.4985C7.10669 10.7225 6.8298 10.8341 6.50002 10.8333C6.16947 10.8333 5.89219 10.7213 5.66819 10.4973C5.44419 10.2733 5.33258 9.99645 5.33336 9.66668V7.33334H3.00002V21.3333ZM7.66669 5.00001H12.3334C12.3334 4.35834 12.1047 3.80884 11.6474 3.35151C11.19 2.89418 10.6409 2.6659 10 2.66668C9.35836 2.66668 8.80886 2.89534 8.35152 3.35268C7.89419 3.81001 7.66591 4.35912 7.66669 5.00001Z" fill="white"/>
</svg>
