<svg width="21" height="20" viewBox="0 0 21 20" fill="none" xmlns="http://www.w3.org/2000/svg">
<circle cx="10.3334" cy="10" r="10" fill="white" fill-opacity="0.4"/>
<path d="M6.84852 12.669C6.62322 12.8943 6.62322 13.2595 6.84852 13.4849C7.07383 13.7102 7.43911 13.7102 7.66442 13.4849L6.84852 12.669ZM14.3605 6.54976C14.3605 6.23114 14.1022 5.97284 13.7836 5.97284L8.5913 5.97284C8.27268 5.97284 8.01438 6.23114 8.01438 6.54976C8.01438 6.86839 8.27268 7.12669 8.5913 7.12669H13.2067V11.7421C13.2067 12.0607 13.465 12.319 13.7836 12.319C14.1022 12.319 14.3605 12.0607 14.3605 11.7421L14.3605 6.54976ZM7.66442 13.4849L14.1916 6.95771L13.3757 6.14182L6.84852 12.669L7.66442 13.4849Z" fill="#6A4BB4"/>
</svg>
